# xmcd
#
# Track frame offsets: 
#        182
#        9072
#        24935
#        34420
#        46610
#        57335
#        60312
#        72375
#        82310
#
# Disc length: 1108 seconds
#
# Revision: 0
# Processed by: cddbd v1.5.2PL0 Copyright (c) Steve Scherf et al.
# Submitted via: ExactAudioCopy v0.99pb3
#
DISCID=69045209
DTITLE=Dollop - Heavy
DYEAR=1993
DGENRE=Temptation
TTITLE0=Timing's Shot
TTITLE1=World's Apart
TTITLE2=Soapbox
TTITLE3=Powerboy
TTITLE4=Cherry
TTITLE5=Chainsaw Rainforest
TTITLE6=Better Off Dead
TTITLE7=Bowed Wah
TTITLE8=Cake'In
EXTD=
EXTT0=
EXTT1=
EXTT2=
EXTT3=
EXTT4=
EXTT5=
EXTT6=
EXTT7=
EXTT8=
PLAYORDER=
